<?xml version="1.0" standalone="no"?>
<!DOCTYPE svg PUBLIC "-//W3C//DTD SVG 20010904//EN"
 "http://www.w3.org/TR/2001/REC-SVG-20010904/DTD/svg10.dtd">
<svg version="1.0" xmlns="http://www.w3.org/2000/svg"
 width="600.000000pt" height="600.000000pt" viewBox="0 0 600.000000 600.000000"
 preserveAspectRatio="xMidYMid meet">

<g transform="translate(0.000000,600.000000) scale(0.100000,-0.100000)"
fill="#000000" stroke="none">
<path d="M1855 4699 c-416 -39 -784 -214 -1071 -510 -284 -295 -436 -633 -475
-1063 -33 -355 73 -758 280 -1068 278 -416 693 -673 1199 -742 168 -24 2256
-24 2424 0 507 69 920 325 1199 742 207 310 313 713 280 1068 -41 447 -207
804 -512 1100 -150 144 -267 226 -450 313 -187 90 -375 140 -599 160 -138 13
-2139 13 -2275 0z m2258 -604 c234 -35 448 -144 618 -316 434 -438 421 -1156
-30 -1581 -131 -124 -295 -215 -476 -265 l-100 -28 -1120 0 c-1119 0 -1120 0
-1202 22 -329 88 -585 292 -734 585 -335 662 78 1468 811 1583 132 20 2096 21
2233 0z"/>
</g>
</svg>
